# xmcd
#
# Track frame offsets: 
#        150
#        18139
#        34165
#        50010
#        65049
#        81684
#        101734
#        121600
#        140750
#        158299
#        171585
#        190163
#        207060
#        223016
#
# Disc length: 3159 seconds
#
# Revision: 0
# Processed by: cddbd v1.5.1PL0 Copyright (c) Steve Scherf et al.
# Submitted via: ExactAudioCopy v0.95a3
#
DISCID=c90c550e
DTITLE=Rick and Renner - Vol
DYEAR=1900
DGENRE=Country
TTITLE0=Baby
TTITLE1=Poucas E Boas
TTITLE2=Mais Um Dia Sem Voce
TTITLE3=Tira A Roupa
TTITLE4=Pra Ela E Pra Mim
TTITLE5=Tonto
TTITLE6=Saudade Pesada
TTITLE7=NaS Ondas Do Amor
TTITLE8=Tanto Tempo Longe De Voce
TTITLE9=To Querendo De Novo
TTITLE10=Quero Teu Amor De Volta
TTITLE11=Minha Onda E Voce
TTITLE12=Ciume De Voce
TTITLE13=O Teu Amor Me Pegou
EXTD=
EXTT0=
EXTT1=
EXTT2=
EXTT3=
EXTT4=
EXTT5=
EXTT6=
EXTT7=
EXTT8=
EXTT9=
EXTT10=
EXTT11=
EXTT12=
EXTT13=
PLAYORDER=
